<?xml version="1.0" encoding="utf-8"?>
<!-- Generator: Adobe Illustrator 24.0.1, SVG Export Plug-In . SVG Version: 6.00 Build 0)  -->
<svg version="1.1" id="Layer_1" xmlns="http://www.w3.org/2000/svg" xmlns:xlink="http://www.w3.org/1999/xlink" x="0px" y="0px"
	 viewBox="0 0 1385.1 304.2" style="enable-background:new 0 0 1385.1 304.2;" xml:space="preserve">
<style type="text/css">
	.st0{fill:#F4E07F;}
	.st1{fill:#E4CA33;}
	.st2{fill:#FFFFFF;}
	.st3{fill:url(#SVGID_1_);}
	.st4{fill:url(#SVGID_2_);}
	.st5{fill:url(#SVGID_3_);}
	.st6{fill:url(#SVGID_4_);}
</style>
<title>Asset 1</title>
<g id="Layer_2_1_">
	<g id="Layer_1-2">
		<path class="st0" d="M456.2,280.7c3.1-1.2,5.9-3,8.3-5.3l2.5-2.6l3.8,3.2c-0.3,0.5-0.7,0.9-1.1,1.3c-0.6,0.6-1.5,1.5-3.2,3
			c-1.7,1.5-3.5,2.7-5.5,3.8c-2.4,1.3-5,2.3-7.7,3c-3.3,0.9-6.6,1.4-10,1.3c-10.4,0-18.9-3.4-26-10.6s-10.6-15.6-10.6-26
			c-0.3-19.9,15.7-36.3,35.6-36.6c0.3,0,0.7,0,1,0c3.2,0,6.3,0.4,9.4,1.1c2.6,0.6,5.2,1.6,7.5,2.8c1.8,0.9,3.6,2,5.3,3.2
			c1.2,0.8,2.3,1.8,3.2,2.8l1.1,1.3l-3.4,3.6c-0.8-1-1.7-1.9-2.6-2.6c-1.1-1.1-3.8-2.4-7.7-4.3c-4-1.8-8.3-2.7-12.6-2.6
			c-8.9,0-16.2,3-22.1,9.1c-11.8,12.6-11.8,32.3,0,44.9c5.8,6,13.2,9.1,22.1,9C447.8,283.4,452.1,282.4,456.2,280.7z"/>
		<path class="st0" d="M549.3,250.9h-64.9v0.9c-0.2,8.4,3,16.5,8.9,22.5c5.9,6,13.2,9.1,22.1,9.1c3.5,0,6.9-0.5,10.2-1.5
			c2.7-0.9,5.4-2.2,7.7-3.8c1.9-1.4,3.6-2.9,5.3-4.5c1.3-1.2,2.3-2.5,3.2-4l0.9-1.5l4,2.5c-0.3,0.7-0.7,1.3-1.1,1.9
			c-1.1,1.5-2.3,3-3.6,4.3c-1.8,2-3.8,3.9-6,5.5c-2.7,1.9-5.7,3.3-8.9,4.3c-3.8,1.3-7.8,2-11.9,1.9c-10.4,0-18.9-3.4-26-10.6
			s-10.6-15.6-10.6-26c-0.3-19.9,15.6-36.3,35.6-36.6c0.3,0,0.7,0,1,0c9-0.1,17.6,3.6,23.7,10.2c6.6,6.6,10.2,15.6,10,24.9
			L549.3,250.9L549.3,250.9z M495.3,227.7c-5.6,4.7-9.4,11.2-10.6,18.5h58.5c-0.8-7-4.2-13.5-9.4-18.3c-5-4.8-11.6-7.4-18.5-7.4
			C508.1,220.5,501,223,495.3,227.7L495.3,227.7z"/>
		<path class="st0" d="M574.3,287.1h-5.7v-70.4h4.9l0.8,15.1c5.3-10.9,14.5-16.4,27.5-16.4c7.6-0.2,14.9,2.9,20,8.5
			c5.5,5.7,8.1,14.1,8.1,25.1v38.1h-5.7v-36.2c0-10.2-2.3-17.7-6.6-22.8c-4.2-4.9-10.3-7.7-16.8-7.6c-7.7,0-14.2,2.6-19.2,8.1
			c-4.9,5.3-7.5,13.8-7.5,25.1L574.3,287.1L574.3,287.1z"/>
		<path class="st0" d="M641,216.8h15.3v-18.7h5.7v18.7h30.6v4.5H662v45.1c0,5.7,1.3,10,4.2,12.8c2.9,2.9,7,4.5,11.1,4.3
			c2.3,0,4.7-0.2,7-0.6c1.8-0.2,3.6-0.6,5.3-1.1l1.9-0.6l1.1,4.5c-3.6,1.9-8.7,2.8-15.3,2.8c-6.6,0-11.7-1.9-15.3-5.7
			c-3.6-3.8-5.5-9.3-5.5-16.6v-45.1H641V216.8z"/>
		<path class="st0" d="M714.8,287.1h-5.7v-70.4h4.9l0.8,17c5.3-12.3,15.5-18.3,30.4-18.3l-0.2,5.5h-0.8c-9.2,0-16.6,2.8-21.7,8.5
			c-5.3,5.7-7.7,14.1-7.7,25.7L714.8,287.1z"/>
		<path class="st0" d="M821.8,250.9h-64.7v0.9c-0.2,8.4,3,16.5,8.9,22.5c5.8,6,13.2,9.1,22.1,9.1c3.4,0,6.9-0.5,10.2-1.5
			c2.7-0.9,5.4-2.2,7.7-3.8c1.9-1.4,3.6-2.9,5.3-4.5c1.2-1.2,2.3-2.6,3.2-4l0.9-1.5l4,2.5c-0.3,0.6-0.7,1.3-1.1,1.9
			c-1.1,1.5-2.3,3-3.6,4.3c-1.8,2-3.8,3.9-6,5.5c-2.8,1.8-5.7,3.3-8.9,4.3c-3.8,1.3-7.8,2-11.9,1.9c-10.4,0-18.9-3.4-26-10.6
			s-10.6-15.6-10.6-26c-0.3-19.9,15.6-36.3,35.6-36.6c0.3,0,0.7,0,1,0c9-0.1,17.6,3.6,23.8,10.2c6.6,6.6,10.2,15.6,10,24.9l0.2,0.6
			L821.8,250.9z M768,227.7c-5.6,4.7-9.4,11.2-10.6,18.5h58.5c-0.8-7-4.2-13.5-9.4-18.3c-5-4.8-11.6-7.4-18.5-7.4
			C780.7,220.4,773.6,223,768,227.7z"/>
		<path class="st0" d="M940.2,287.1h-4.5l-0.9-16.6c-6.3,11.3-18.4,18.2-31.3,17.9c-9.5,0.2-18.7-3.6-25.3-10.6
			c-7-7-10.4-15.6-10.4-26s3.4-19.1,10.6-26s15.5-10.6,25.5-10.6c6.3-0.1,12.6,1.5,18.1,4.7c5.4,3.1,9.8,7.6,12.8,13v-43.2h5.7
			L940.2,287.1z M926.5,229.4c-5.8-5.9-13.8-9.2-22.1-9c-8.9,0-16.2,3-22.1,9c-11.8,12.6-11.8,32.3,0,44.9c5.8,6,13.2,9.1,22.1,9.1
			c8.9,0,16.2-3,22.1-9.1c5.9-6,9.1-14.1,8.9-22.4C935.3,242.8,932.5,235.5,926.5,229.4z"/>
		<path class="st1" d="M959.9,219.1v-29.3h4.9v29.3H959.9z"/>
		<path class="st0" d="M987.6,251.1c5.1-4.3,11.9-6.4,20.4-6.4c11,0,19.2,3.2,24.7,9.4v-7.4c0-8.9-2.1-15.5-6.2-20
			c-4.2-4.3-10-6.6-17.3-6.6c-4-0.1-8.1,0.6-11.9,1.9c-3.6,1.3-6.2,2.6-7.7,4l-2.1,1.9l-3.4-3.6c0.9-0.9,1.8-1.7,2.8-2.4
			c1.1-0.9,4-2.5,8.3-4c4.5-1.7,9.3-2.5,14.2-2.4c9.2,0,16.4,2.6,21.5,8.1c5.1,5.3,7.6,13.2,7.6,23.2v40.6h-4.2l-1-8.5
			c-5.5,6.6-13.8,9.8-25.1,9.8c-8.5,0-15.3-2.1-20.4-6.2c-5.1-4.1-7.7-9.2-7.7-15.5C979.9,260.7,982.5,255.5,987.6,251.1z
			 M991.7,278.7c4.2,3.2,9.8,4.7,17,4.7c7.9,0,14-1.5,18.3-4.7c4.3-3.2,6.4-7.2,6.4-11.9s-2.1-8.9-6.4-12.1s-10.4-4.7-18.3-4.7
			c-7.2,0-12.8,1.7-17,4.9c-4.2,3.2-6.2,7.2-6.2,11.9S987.6,275.5,991.7,278.7L991.7,278.7z"/>
		<path class="st0" d="M1100.6,195.8c-4-1.8-8.4-2.6-12.8-2.4c-5.3,0-9.6,1.7-12.8,4.9s-4.7,8.1-4.7,14.3v8.1h29.8v4.5h-29.8V287
			h-5.7v-61.7h-15.3v-4.5h15.3v-8.1c0-7.9,2.1-14,6-18.1s9.6-6.2,16.8-6.2c2.6-0.1,5.2,0.2,7.7,0.8c2.3,0.6,4,0.9,4.9,1.3l1.3,0.8
			L1100.6,195.8z M1147.2,195.8c-4-1.8-8.4-2.6-12.8-2.4c-5.3,0-9.6,1.7-12.8,5.1s-4.7,8.5-4.7,15.5v6.8h29.8v4.5h-29.8V287h-5.7
			v-73c0-8.5,2.1-14.9,6-19.2s9.6-6.4,17-6.4c2.6-0.1,5.2,0.2,7.7,0.8c1.6,0.3,3.2,0.8,4.7,1.3l1.3,0.8L1147.2,195.8z"/>
		<path class="st0" d="M1165.7,251.1c5.1-4.3,11.9-6.4,20.4-6.4c10.9,0,19.2,3.2,24.7,9.4v-7.4c0-8.9-2.1-15.5-6.2-20
			c-4.2-4.3-10-6.6-17.4-6.6c-4-0.1-8.1,0.6-11.9,1.9c-3.6,1.3-6.2,2.6-7.7,4l-2.1,1.9l-3.4-3.6c0.9-0.9,1.8-1.7,2.8-2.4
			c1.1-0.9,4-2.5,8.3-4c4.5-1.7,9.3-2.5,14.2-2.4c9.3,0,16.4,2.6,21.5,8.1c5.1,5.3,7.6,13.2,7.6,23.2v40.6h-4.2l-1-8.5
			c-5.5,6.6-13.8,9.8-25.1,9.8c-8.5,0-15.3-2.1-20.4-6.2c-5.1-4.1-7.7-9.2-7.7-15.5C1157.9,260.7,1160.6,255.5,1165.7,251.1z
			 M1169.8,278.7c4.2,3.2,9.8,4.7,17,4.7c7.9,0,14-1.5,18.3-4.7s6.4-7.2,6.4-11.9s-2.1-8.9-6.4-12.1s-10.4-4.7-18.3-4.7
			c-7.2,0-12.8,1.7-17,4.9c-4.2,3.2-6.2,7.2-6.2,11.9S1165.7,275.5,1169.8,278.7L1169.8,278.7z"/>
		<path class="st0" d="M1240.2,192.6c1.9-1.7,4.8-1.5,6.5,0.3c1.7,1.9,1.5,4.8-0.3,6.5s-4.8,1.5-6.5-0.3c-0.8-0.8-1.2-1.9-1.2-3.1
			C1238.8,194.8,1239.3,193.6,1240.2,192.6z M1240.8,216.8h5.8v70.4h-5.8V216.8z"/>
		<path class="st0" d="M1277.9,287.1h-5.7v-70.4h4.9l0.8,17c5.3-12.3,15.5-18.3,30.4-18.3l-0.2,5.5h-0.8c-9.3,0-16.6,2.8-21.7,8.5
			c-5.3,5.7-7.7,14.1-7.7,25.7L1277.9,287.1z"/>
		<path class="st0" d="M1384.9,250.9h-64.7v0.9c-0.2,8.4,3,16.5,8.9,22.5c5.9,6,13.2,9.1,22.1,9.1c3.5,0,6.9-0.5,10.2-1.5
			c2.7-0.9,5.4-2.2,7.7-3.8c1.9-1.4,3.7-2.9,5.3-4.5c1.2-1.2,2.3-2.6,3.2-4l1-1.5l4,2.5c-0.4,0.6-0.6,1.1-1.1,1.9
			c-1.1,1.5-2.3,3-3.6,4.3c-1.8,2-3.8,3.9-6,5.5c-2.8,1.8-5.7,3.3-8.9,4.3c-3.8,1.3-7.8,2-11.9,1.9c-10.4,0-18.9-3.4-26-10.6
			s-10.6-15.6-10.6-26c-0.3-19.9,15.6-36.3,35.6-36.6c0.3,0,0.7,0,1,0c9-0.1,17.6,3.6,23.8,10.2c6.6,6.6,10.2,15.6,10,24.9l0.2,0.6
			L1384.9,250.9z M1330.9,227.7c-5.6,4.7-9.4,11.2-10.6,18.5h58.5c-0.8-7-4.2-13.5-9.4-18.3c-5-4.8-11.6-7.4-18.5-7.4
			C1343.6,220.5,1336.5,223,1330.9,227.7L1330.9,227.7z"/>
		<path class="st2" d="M406.5,17.4h34v122.2h-34V17.4z"/>
		<path class="st2" d="M498.4,67.2v72.4h-32.3V17.4h34.1l47.2,70v-70h32.3v122.2h-32.3L498.4,67.2z"/>
		<path class="st2" d="M604.1,17.4h46c19.6,0,35.8,5.7,48.5,17.2s19,26,19,43.4s-6.5,32.1-19.5,44s-29.4,17.7-49,17.7h-44.9
			L604.1,17.4L604.1,17.4z M637.3,46.2V111h13c10,0,18.1-3,24.5-9.1s9.6-13.8,9.6-23.2s-3.2-17.2-9.6-23.2s-14.5-9-24.5-9l-13-0.2
			V46.2z"/>
		<path class="st2" d="M737.6,17.4h34v122.2h-34V17.4z"/>
		<path class="st2" d="M915.9,70.8c0.5,3,0.8,6,0.8,9.1c0,17.5-5.7,32.3-16.8,44s-25.8,17.5-44,17.5c-18.5,0-33.6-6-45.8-17.9
			s-18.3-26.8-18.3-44.5S798,46.2,810.6,34c12.5-12.3,27.9-18.5,46.4-18.5c6-0.1,11.9,0.6,17.7,2.1c4.7,1.2,9.4,2.8,13.8,4.9
			c3.2,1.7,6.3,3.6,9.2,5.7c2,1.4,3.8,2.9,5.5,4.7l1.7,2.1l-23.2,23.4c-0.2-0.4-0.6-0.8-1-1.3c-0.9-1.1-1.9-2.1-3-3
			c-1.5-1.5-3.2-2.7-5.1-3.8c-2.3-1.3-4.7-2.3-7.2-3c-3-0.9-6.1-1.4-9.2-1.3c-9.3,0-16.8,3-22.6,9.3s-8.9,14-8.9,23.4
			s3,17.4,8.9,23.6c5.8,6.2,14,9.6,22.5,9.4c14.2,0,22.8-5.8,26-17.5h-27.6V70.4L915.9,70.8z"/>
		<path class="st2" d="M935.9,139.6V17.4h92.6v28.9h-59.4v17.5h50.6v27h-50.6V111h61.1v28.9L935.9,139.6L935.9,139.6z"/>
		<path class="st2" d="M1081.7,67.2v72.4h-32.3V17.4h34.1l47.2,70v-70h32.2v122.2h-32.3L1081.7,67.2z"/>
		<path class="st2" d="M1187.4,139.6V17.4h92.6v28.9h-59.4v17.5h50.6v27h-50.6V111h61.1v28.9L1187.4,139.6L1187.4,139.6z"/>
		<path class="st2" d="M1335.5,56.6c2.7,2.1,7.7,4.7,15.5,8.1c22.6,9.8,34,22.6,34,38.7c0,10.8-4.3,19.8-12.8,27.2
			s-19.6,10.9-33,10.9c-5.7,0.1-11.5-0.6-17-2.1c-4.7-1.1-9.3-2.7-13.8-4.7c-3.3-1.7-6.5-3.6-9.6-5.7c-2.2-1.3-4.2-2.9-6-4.7
			l-1.9-2.1l19.2-20.9c1.4,1.3,2.8,2.6,4.3,3.8c1.9,1.5,5.5,3.4,10.8,6c4.8,2.4,10.1,3.6,15.5,3.8c2.7,0.1,5.3-0.7,7.5-2.3
			c1.9-1.5,3-3.2,3-5.5c0-2.8-1.7-5.7-5.3-8.5c-3.4-2.7-10.2-6.2-20.2-10.4c-18.5-8.1-27.7-20.2-27.7-36.2c0-10.6,4.2-19.2,12.3-26
			s18.9-10.2,31.9-10.2c7.8-0.1,15.6,1.3,22.8,4.1c7.2,2.8,12.5,5.7,15.5,8.5l4.7,4l-19.2,20.9c-1-1.1-2.1-2.1-3.2-3
			c-2.5-1.8-5.3-3.4-8.1-4.7c-3.8-1.9-8-2.9-12.3-3c-2.7-0.1-5.4,0.6-7.7,2.1c-1.7,1.1-2.8,2.9-2.8,4.9
			C1331.5,52.3,1332.8,54.7,1335.5,56.6z"/>
		
			<linearGradient id="SVGID_1_" gradientUnits="userSpaceOnUse" x1="-4.8261" y1="103.096" x2="284.4639" y2="392.386" gradientTransform="matrix(1 0 0 1 0 -55.97)">
			<stop  offset="0" style="stop-color:#DAA012"/>
			<stop  offset="1" style="stop-color:#FFEE55"/>
		</linearGradient>
		<path class="st3" d="M312.2,121c-0.9,27.2-13.8,41.2-24.5,48.2c-1.6,1-3.1,1.9-4.8,2.8c-20.3,10.3-45.9,6.3-62.7-10.5L101.5,42.6
			c-16.3-16.3-42.8-16.3-59.1,0.1c-7.8,7.8-12.2,18.5-12.2,29.5v192.4l74.5-37.4l19.7-9.9h0.1l9.9-5l13.7,27.1l-0.9,0.5h-0.1
			l-19.7,9.9L22.6,302.5c-2.2,1.1-4.6,1.7-7,1.7c-2.9,0-5.7-0.8-8.2-2.3C2.8,299.1,0,294,0,288.6V72.2C0,32.3,32.3,0,72.2,0
			c19.1,0,37.5,7.6,51,21.1l43.1,43.1l22.4,22.7l53,53c8,8,20.4,9.6,29.4,3.8c6.8-4.4,11.4-12.2,11.8-23.7L312.2,121z"/>
		
			<linearGradient id="SVGID_2_" gradientUnits="userSpaceOnUse" x1="51.5118" y1="46.5782" x2="340.8118" y2="335.8681" gradientTransform="matrix(1 0 0 1 0 -55.97)">
			<stop  offset="0" style="stop-color:#DA9F11"/>
			<stop  offset="1" style="stop-color:#FFEE53"/>
		</linearGradient>
		<path class="st4" d="M313.3,15.6v216.3c0,39.9-32.3,72.2-72.2,72.2c-19.1,0-37.5-7.6-51-21.1l-65.8-65.8l-53-53
			c-8-8-20.4-9.6-29.4-3.8c-6.8,4.4-11.4,12.2-11.8,23.7l-29.3-1c0.9-27.2,13.8-41.2,24.5-48.2c1.5-1,3.1-1.9,4.8-2.7
			c20.3-10.3,45.9-6.3,62.7,10.5l118.8,118.8c16.3,16.3,42.8,16.3,59.1-0.1c7.8-7.8,12.2-18.5,12.2-29.5V39.5l-94.2,47.4l-9.9,5
			l-13.6-27.1l0.9-0.5L290.6,1.7c4.9-2.4,10.7-2.2,15.3,0.7C310.5,5.2,313.3,10.2,313.3,15.6z"/>
		
			<linearGradient id="SVGID_3_" gradientUnits="userSpaceOnUse" x1="142.9813" y1="277.7719" x2="118.8213" y2="294.2918" gradientTransform="matrix(1 0 0 1 0 -55.97)">
			<stop  offset="0" style="stop-color:#DA9F12"/>
			<stop  offset="1" style="stop-color:#823600;stop-opacity:0"/>
		</linearGradient>
		<polygon class="st5" points="147,239.9 127.2,249.8 104.6,227.2 124.3,217.3 		"/>
		
			<linearGradient id="SVGID_4_" gradientUnits="userSpaceOnUse" x1="1516.8965" y1="556.2249" x2="1492.7365" y2="572.7549" gradientTransform="matrix(-1 0 0 -1 1686.98 638.62)">
			<stop  offset="0" style="stop-color:#DCA415"/>
			<stop  offset="1" style="stop-color:#99270B;stop-opacity:0"/>
		</linearGradient>
		<polygon class="st6" points="166.1,64.3 185.8,54.4 208.4,77 188.7,86.9 		"/>
	</g>
</g>
</svg>
