<svg xmlns="http://www.w3.org/2000/svg" xmlnsXlink="http://www.w3.org/1999/xlink" viewBox="0 0 1385.08 304.2"><defs><style>.cls-1{fill:#e4ca33;}.cls-2{fill:#231f20;}.cls-3{fill:url(#linear-gradient);}.cls-4{fill:url(#linear-gradient-2);}.cls-5{fill:url(#linear-gradient-3);}.cls-6{fill:url(#linear-gradient-4);}</style><linearGradient id="linear-gradient" x1="-4.8" y1="688.88" x2="284.49" y2="399.59" gradientTransform="matrix(1, 0, 0, -1, 0, 736.03)" gradientUnits="userSpaceOnUse"><stop offset="0" stop-color="#daa012"/><stop offset="1" stop-color="#fe5"/></linearGradient><linearGradient id="linear-gradient-2" x1="51.51" y1="745.42" x2="340.81" y2="456.13" gradientTransform="matrix(1, 0, 0, -1, 0, 736.03)" gradientUnits="userSpaceOnUse"><stop offset="0" stop-color="#da9f11"/><stop offset="1" stop-color="#ffee53"/></linearGradient><linearGradient id="linear-gradient-3" x1="142.98" y1="514.23" x2="118.82" y2="497.71" gradientTransform="matrix(1, 0, 0, -1, 0, 736.03)" gradientUnits="userSpaceOnUse"><stop offset="0" stop-color="#da9f12"/><stop offset="1" stop-color="#823600" stop-opacity="0"/></linearGradient><linearGradient id="linear-gradient-4" x1="742.9" y1="-250.23" x2="718.74" y2="-266.76" gradientTransform="matrix(-1, 0, 0, 1, 912.98, 332.62)" gradientUnits="userSpaceOnUse"><stop offset="0" stop-color="#dca415"/><stop offset="1" stop-color="#99270b" stop-opacity="0"/></linearGradient></defs><title>Asset 1</title><g id="Layer_2" data-name="Layer 2"><g id="Layer_1-2" data-name="Layer 1"><path class="cls-1" d="M456.16,280.73a26.09,26.09,0,0,0,8.3-5.28l2.45-2.64,3.77,3.21a6,6,0,0,1-1.13,1.32c-.56.56-1.51,1.51-3.21,3a27.63,27.63,0,0,1-5.47,3.77,34.47,34.47,0,0,1-7.73,3,35.62,35.62,0,0,1-10,1.32c-10.38,0-18.86-3.4-26-10.57s-10.57-15.65-10.57-26a36.1,36.1,0,0,1,36.6-36.6,39.33,39.33,0,0,1,9.43,1.13,32,32,0,0,1,7.55,2.83,45,45,0,0,1,5.28,3.21,17.69,17.69,0,0,1,3.21,2.83l1.13,1.32-3.4,3.59a16.7,16.7,0,0,0-2.64-2.65c-1.13-1.13-3.77-2.45-7.73-4.33a29.2,29.2,0,0,0-12.64-2.65q-13.31,0-22.07,9.06a32.85,32.85,0,0,0,0,44.9q8.76,9.06,22.07,9.05A36.1,36.1,0,0,0,456.16,280.73Z"/><path class="cls-1" d="M549.35,250.93H484.46v.94a30.86,30.86,0,0,0,8.86,22.45q8.78,9.06,22.07,9.06a36.06,36.06,0,0,0,10.19-1.51,29.85,29.85,0,0,0,7.74-3.78,44.19,44.19,0,0,0,5.28-4.52,17.24,17.24,0,0,0,3.21-4l.94-1.5,4,2.45a7.25,7.25,0,0,1-1.13,1.88,54.57,54.57,0,0,1-3.59,4.34,40.27,40.27,0,0,1-6,5.47,35.34,35.34,0,0,1-8.87,4.34,34.91,34.91,0,0,1-11.88,1.89c-10.38,0-18.87-3.4-26-10.57s-10.56-15.65-10.56-26a36.08,36.08,0,0,1,36.6-36.6A32,32,0,0,1,539,225.46a34.45,34.45,0,0,1,10,24.9l.38.57Zm-54-23.21a30.23,30.23,0,0,0-10.57,18.49h58.48a29.3,29.3,0,0,0-9.43-18.3,26.45,26.45,0,0,0-18.49-7.36A30.61,30.61,0,0,0,495.4,227.72Z"/><path class="cls-1" d="M574.25,287.15h-5.66V216.78h4.91l.75,15.09c5.29-10.94,14.53-16.41,27.55-16.41a26.36,26.36,0,0,1,20,8.49c5.47,5.66,8.12,14.15,8.12,25.09v38.11h-5.66V250.93c0-10.19-2.27-17.74-6.61-22.83a21.3,21.3,0,0,0-16.79-7.55c-7.73,0-14.15,2.65-19.24,8.12-4.9,5.28-7.55,13.77-7.55,25.09l.19,33.39Z"/><path class="cls-1" d="M641,216.78h15.28V198.11H662v18.67h30.56v4.53H662V266.4c0,5.66,1.32,10,4.15,12.83a14.9,14.9,0,0,0,11.13,4.33,45,45,0,0,0,7-.56,35.35,35.35,0,0,0,5.28-1.13l1.89-.57,1.13,4.53q-5.38,2.84-15.28,2.83T662,283c-3.59-3.77-5.47-9.25-5.47-16.6V221.31H641v-4.53Z"/><path class="cls-1" d="M714.8,287.15h-5.66V216.78H714l.76,17c5.28-12.26,15.47-18.3,30.37-18.3l-.19,5.47h-.75c-9.24,0-16.6,2.83-21.7,8.49-5.28,5.66-7.73,14.15-7.73,25.66Z"/><path class="cls-1" d="M821.77,250.93H757.06v.94a30.9,30.9,0,0,0,8.86,22.45q8.77,9.06,22.08,9.06a36,36,0,0,0,10.18-1.51,29.85,29.85,0,0,0,7.74-3.78,44.19,44.19,0,0,0,5.28-4.52,24.54,24.54,0,0,0,3.21-4l.94-1.5,4,2.45a21.64,21.64,0,0,1-1.13,1.88,56.05,56.05,0,0,1-3.58,4.34,40.82,40.82,0,0,1-6,5.47,38.55,38.55,0,0,1-8.87,4.34,34.87,34.87,0,0,1-11.88,1.89c-10.38,0-18.87-3.4-26-10.57s-10.56-15.65-10.56-26a36.08,36.08,0,0,1,36.6-36.6,32,32,0,0,1,23.77,10.19,34.46,34.46,0,0,1,10,24.9l.19.57ZM768,227.72a30.27,30.27,0,0,0-10.57,18.49h58.49a29.31,29.31,0,0,0-9.44-18.3A26.43,26.43,0,0,0,788,220.55,30.26,30.26,0,0,0,768,227.72Z"/><path class="cls-1" d="M940.24,287.15h-4.53l-.94-16.6a35.1,35.1,0,0,1-31.32,17.92,33.63,33.63,0,0,1-25.28-10.57c-7-7-10.37-15.65-10.37-26s3.39-19.05,10.56-26,15.47-10.57,25.47-10.57A35.06,35.06,0,0,1,921.94,220a34,34,0,0,1,12.83,13V189.8h5.66l-.19,97.35Zm-13.77-57.73a29.74,29.74,0,0,0-22.08-9q-13.29,0-22.07,9a32.87,32.87,0,0,0,0,44.9q8.77,9.06,22.07,9.06t22.08-9.06a30.86,30.86,0,0,0,8.86-22.45C935.33,242.82,932.5,235.46,926.47,229.42Z"/><path class="cls-1" d="M959.86,219.05V189.8h4.9v29.25Z"/><path class="cls-1" d="M987.59,251.12c5.09-4.34,11.89-6.42,20.37-6.42,10.95,0,19.25,3.21,24.72,9.43v-7.35c0-8.87-2.08-15.47-6.23-20-4.15-4.34-10-6.6-17.35-6.6a34.92,34.92,0,0,0-11.89,1.88c-3.58,1.32-6.22,2.64-7.73,4l-2.08,1.88L984,224.33a20.92,20.92,0,0,1,2.83-2.45c1.13-.95,4-2.46,8.3-4a38.61,38.61,0,0,1,14.15-2.45c9.24,0,16.41,2.64,21.5,8.11,5.1,5.29,7.55,13.21,7.55,23.21v40.56h-4.15l-1-8.49c-5.47,6.6-13.77,9.81-25.09,9.81q-12.74,0-20.37-6.23c-5.09-4.15-7.74-9.24-7.74-15.47C979.86,260.74,982.5,255.46,987.59,251.12Zm4.15,27.54c4.15,3.21,9.81,4.72,17,4.72,7.92,0,14-1.51,18.3-4.72s6.41-7.17,6.41-11.89-2.07-8.86-6.41-12.07-10.38-4.72-18.3-4.72c-7.17,0-12.83,1.7-17,4.91s-6.22,7.17-6.22,11.88S987.59,275.45,991.74,278.66Z"/><path class="cls-1" d="M1100.59,195.84a29.75,29.75,0,0,0-12.83-2.45c-5.28,0-9.62,1.7-12.82,4.9s-4.72,8.12-4.72,14.34v8.11H1100v4.53h-29.81V287h-5.66V225.27h-15.28v-4.53h15.28v-8.11c0-7.92,2.08-14,6-18.11s9.62-6.22,16.79-6.22a32.34,32.34,0,0,1,7.73.75c2.27.57,4,.94,4.91,1.32l1.32.76Zm46.6,0a29.82,29.82,0,0,0-12.83-2.45c-5.28,0-9.62,1.7-12.83,5.09s-4.71,8.49-4.71,15.47v6.79h29.8v4.53h-29.8V287h-5.66V214c0-8.49,2.07-14.9,6-19.24s9.63-6.41,17-6.41a32.48,32.48,0,0,1,7.74.75,33.68,33.68,0,0,1,4.71,1.32l1.32.76Z"/><path class="cls-1" d="M1165.68,251.12c5.09-4.34,11.88-6.42,20.37-6.42,10.94,0,19.24,3.21,24.72,9.43v-7.35c0-8.87-2.08-15.47-6.23-20-4.15-4.34-10-6.6-17.36-6.6a34.91,34.91,0,0,0-11.88,1.88c-3.59,1.32-6.23,2.64-7.74,4l-2.07,1.88-3.4-3.58a21.58,21.58,0,0,1,2.83-2.45c1.14-.95,4-2.46,8.3-4a38.65,38.65,0,0,1,14.15-2.45c9.25,0,16.42,2.64,21.51,8.11,5.09,5.29,7.55,13.21,7.55,23.21v40.56h-4.15l-1-8.49c-5.47,6.6-13.77,9.81-25.09,9.81q-12.73,0-20.37-6.23c-5.1-4.15-7.74-9.24-7.74-15.47C1157.94,260.74,1160.58,255.46,1165.68,251.12Zm4.15,27.54c4.15,3.21,9.81,4.72,17,4.72,7.92,0,14-1.51,18.3-4.72s6.41-7.17,6.41-11.89-2.07-8.86-6.41-12.07-10.38-4.72-18.3-4.72c-7.17,0-12.83,1.7-17,4.91s-6.23,7.17-6.23,11.88S1165.68,275.45,1169.83,278.66Z"/><path class="cls-1" d="M1240.2,192.63a4.58,4.58,0,1,1-1.51,3.4A5.56,5.56,0,0,1,1240.2,192.63Zm.56,24.15h5.85v70.37h-5.85Z"/><path class="cls-1" d="M1277.93,287.15h-5.66V216.78h4.9l.76,17c5.28-12.26,15.47-18.3,30.37-18.3l-.19,5.47h-.75c-9.25,0-16.61,2.83-21.7,8.49-5.28,5.66-7.73,14.15-7.73,25.66Z"/><path class="cls-1" d="M1384.89,250.93h-64.71v.94a30.87,30.87,0,0,0,8.87,22.45q8.78,9.06,22.07,9.06a36.06,36.06,0,0,0,10.19-1.51,29.61,29.61,0,0,0,7.73-3.78,43.56,43.56,0,0,0,5.29-4.52,23.87,23.87,0,0,0,3.2-4l1-1.5,4,2.45c-.38.56-.57,1.13-1.13,1.88a54.57,54.57,0,0,1-3.59,4.34,40.27,40.27,0,0,1-6,5.47,39,39,0,0,1-8.87,4.34,34.93,34.93,0,0,1-11.89,1.89c-10.37,0-18.86-3.4-26-10.57s-10.56-15.65-10.56-26a36.08,36.08,0,0,1,36.59-36.6,32,32,0,0,1,23.77,10.19,34.42,34.42,0,0,1,10,24.9l.19.57Zm-54-23.21a30.23,30.23,0,0,0-10.57,18.49h58.48a29.3,29.3,0,0,0-9.43-18.3,26.45,26.45,0,0,0-18.49-7.36A30.61,30.61,0,0,0,1330.94,227.72Z"/><path class="cls-2" d="M406.54,17.38h34V139.62h-34Z"/><path class="cls-2" d="M498.42,67.18v72.44H466.16V17.38H500.3l47.17,70v-70h32.25V139.62H547.47Z"/><path class="cls-2" d="M604.06,17.38h46c19.62,0,35.85,5.66,48.49,17.16s19,26,19,43.39S711,110,698,121.89s-29.43,17.73-49,17.73h-44.9V17.38Zm33.2,28.86V111h13c10,0,18.11-3,24.53-9.06s9.62-13.77,9.62-23.2-3.21-17.17-9.62-23.21-14.53-9-24.53-9l-13-.19Z"/><path class="cls-2" d="M737.63,17.38h34V139.62h-34Z"/><path class="cls-2" d="M915.9,70.76a51.42,51.42,0,0,1,.76,9.06c0,17.54-5.66,32.26-16.79,44s-25.85,17.54-44,17.54c-18.49,0-33.58-6-45.84-17.92s-18.3-26.79-18.3-44.52S798,46.24,810.63,34C823.09,21.72,838.56,15.49,857,15.49a67.22,67.22,0,0,1,17.74,2.08,71.06,71.06,0,0,1,13.77,4.9,79.56,79.56,0,0,1,9.24,5.66,31.08,31.08,0,0,1,5.47,4.72l1.7,2.07-23.2,23.39c-.19-.37-.57-.75-1-1.32a21.16,21.16,0,0,0-3-3,24.24,24.24,0,0,0-5.1-3.77,33.2,33.2,0,0,0-7.17-3,30.51,30.51,0,0,0-9.24-1.32c-9.25,0-16.79,3-22.64,9.25s-8.87,14-8.87,23.39,3,17.36,8.87,23.58a29.88,29.88,0,0,0,22.45,9.43q21.23,0,26-17.54H854.4V70.39l61.5.37Z"/><path class="cls-2" d="M935.9,139.62V17.38h92.63V46.24H969.1V63.78h50.56v27H969.1V111h61.13v28.86l-94.33-.19Z"/><path class="cls-2" d="M1081.73,67.18v72.44h-32.26V17.38h34.14l47.17,70v-70H1163V139.62h-32.26Z"/><path class="cls-2" d="M1187.37,139.62V17.38H1280V46.24h-59.42V63.78h50.55v27h-50.55V111h61.12v28.86l-94.33-.19Z"/><path class="cls-2" d="M1335.46,56.62c2.65,2.07,7.74,4.71,15.47,8.11,22.64,9.81,34,22.64,34,38.67,0,10.75-4.34,19.81-12.83,27.17s-19.62,10.94-33,10.94a63.42,63.42,0,0,1-17-2.08,72.34,72.34,0,0,1-13.77-4.71,110.07,110.07,0,0,1-9.62-5.66,32,32,0,0,1-6-4.72l-1.89-2.07L1310,101.33a56.05,56.05,0,0,0,4.34,3.77c1.88,1.51,5.47,3.4,10.75,6a37.22,37.22,0,0,0,15.47,3.77,12.31,12.31,0,0,0,7.54-2.26c1.89-1.51,3-3.21,3-5.48,0-2.82-1.7-5.65-5.28-8.48-3.4-2.65-10.19-6.23-20.19-10.38q-27.72-12.16-27.73-36.22c0-10.57,4.15-19.24,12.27-26s18.86-10.18,31.88-10.18A61.24,61.24,0,0,1,1364.89,20c7.17,2.83,12.46,5.66,15.47,8.49l4.72,4-19.24,20.94a26,26,0,0,0-3.21-3,49.08,49.08,0,0,0-8.11-4.72,28.74,28.74,0,0,0-12.26-3,13.45,13.45,0,0,0-7.74,2.07,5.94,5.94,0,0,0-2.83,4.91C1331.5,52.28,1332.82,54.73,1335.46,56.62Z"/><path class="cls-3" d="M312.2,121c-.9,27.2-13.8,41.2-24.5,48.2-1.6,1-3.1,1.9-4.8,2.8-20.3,10.3-45.9,6.3-62.7-10.5L101.5,42.6A41.79,41.79,0,0,0,30.2,72.2V264.6l74.5-37.4,19.7-9.9h.1l9.9-5,13.7,27.1-.9.5h-.1l-19.7,9.9L22.6,302.5a15.71,15.71,0,0,1-7,1.7,15.87,15.87,0,0,1-8.2-2.3A15.51,15.51,0,0,1,0,288.6V72.2A72.2,72.2,0,0,1,123.2,21.1l43.1,43.1,22.4,22.7,53,53c8,8,20.4,9.6,29.4,3.8,6.8-4.4,11.4-12.2,11.8-23.7Z"/><path class="cls-4" d="M313.3,15.6V231.9A72.2,72.2,0,0,1,190.1,283l-65.8-65.8-53-53c-8-8-20.4-9.6-29.4-3.8-6.8,4.4-11.4,12.2-11.8,23.7l-29.3-1c.9-27.2,13.8-41.2,24.5-48.2a37.17,37.17,0,0,1,4.8-2.7c20.3-10.3,45.9-6.3,62.7,10.5L211.6,261.5a41.79,41.79,0,0,0,71.3-29.6V39.5L188.7,86.9l-9.9,5L165.2,64.8l.9-.5L290.6,1.7a15.74,15.74,0,0,1,15.3.7A15.44,15.44,0,0,1,313.3,15.6Z"/><polygon class="cls-5" points="147 239.9 127.2 249.8 104.6 227.2 124.3 217.3 147 239.9"/><polygon class="cls-6" points="166.1 64.3 185.8 54.4 208.4 77 188.7 86.9 166.1 64.3"/></g></g></svg>